<?xml version="1.0" encoding="UTF-8"?><svg id="a" xmlns="http://www.w3.org/2000/svg" viewBox="0 0 348.1 349.02"><path d="M137.54,291.55l1.55.46c15.18,26.29,55.88,26.3,70.45-.46l1.55.46c15.17,25.18,51.34,26.45,68.81,2.78,8.36-11.33,9.94-24.08,6.93-37.69,16.28-2.75,30.65-15.15,35.41-30.97,3.39-11.28-.55-21.47,9.93-29.82,2.9-2.31,13.64-7.22,15.76-3.02,1.32,2.62-5.19,11.95-6.54,15.24-13.22,32.18,3.86,72.01-12.48,103.77-10.45,20.33-31.7,33.88-54.48,35.52-61.76-2.93-126.96,3.79-188.31,0-58.76-3.63-95.25-58.58-84.12-114.94,6.27-31.73,42.09-63.13,7.67-92.86-1.29-1.11-7.77-5.15-7.89-5.62-.61-2.44,5.02-2.71,6.38-2.66,39.37,1.3,26.23,58.51,28.09,83.7,1.31,17.82,11.75,30.72,26.94,39.05-17.58,47.74,47.63,80.37,74.36,37.06Z"/><path d="M122.52,35.8c-19.06,45.85-19.04,98.14,0,144h-34.12c-21.73-44.12-21.74-99.88,0-144h34.12Z"/><path d="M170.52,35.8c-19.06,45.85-19.04,98.14,0,144h-34.12c-21.73-44.38-21.73-99.62,0-144h34.12Z"/><path d="M218.52,35.8c-19.06,45.85-19.04,98.14,0,144h-34.12c-21.73-44.38-21.73-99.62,0-144h34.12Z"/><path d="M266.52,35.8c-19.07,45.85-19.08,98.14,0,144h-34.12c-21.73-44.38-21.73-99.62,0-144h34.12Z"/><path d="M98.36,240.01c41.11-4.77,45.63,56.85,6.53,59.78-39.39,2.95-44-55.43-6.53-59.78ZM99.83,257.98c-14.45,2.34-11.98,26.37,4.89,23.64,14.45-2.34,11.98-26.37-4.89-23.64Z"/><path d="M170.36,240.01c41.11-4.77,45.63,56.85,6.53,59.78-39.39,2.95-44-55.43-6.53-59.78ZM171.83,257.98c-14.45,2.34-11.98,26.37,4.89,23.64,14.45-2.34,11.98-26.37-4.89-23.64Z"/><path d="M242.36,240.01c41.11-4.77,45.63,56.85,6.53,59.78-39.39,2.95-44-55.43-6.53-59.78ZM243.83,257.98c-14.45,2.34-11.98,26.37,4.89,23.64,14.45-2.34,11.98-26.37-4.89-23.64Z"/><path d="M180.27,191.8v36.75c-3.57-1.21-8.4-1.22-12,0v-36.75h12Z"/><path d="M180.27,23.8h-12V3.92c0-5.23,12-5.23,12,0v19.88Z"/></svg>