<?xml version="1.0" encoding="UTF-8"?><svg id="a" xmlns="http://www.w3.org/2000/svg" viewBox="0 0 266.93 369.26"><path d="M70.49,174.79c-1.99-3.85-5.84-6.91-8.57-10.56-25.91-34.6-22.19-86.13,9.31-115.83,1.12-.49,5.26,5.95,6.36,7.16,33.91,37.37,88.92,33.35,117.76-7.5,35.53,32.93,35.79,93.26.37,126.39-1.36.6-5.22-5.89-6.37-7.16-30.98-34.45-80.73-34.21-111.77,0-1.11,1.22-5.55,8.62-7.1,7.5Z"/><path d="M60.72.05c-2.6,12.78,1.46,25.58,5.14,37.72-42.76,38.98-42.83,108.41,0,147.31-3.92,12.21-7.25,24.77-5.52,37.73-24.33-15.17-43.49-40.06-52.88-67.12C-11.28,101.69,6.08,42.01,50.63,6.82c1.09-.86,9.46-7.43,10.09-6.78Z"/><path d="M206.23,222.79c2.5-12.76-1.43-25.59-5.14-37.72,42.77-38.96,42.74-108.37,0-147.31,3.95-12.2,7.15-24.78,5.52-37.73,44.08,28.24,66.91,81.03,58.65,132.91-5.2,32.71-23.67,63.56-49.69,83.81-1.04.81-8.7,6.68-9.34,6.03Z"/><path d="M149.98,154.54v85.5h-33v-85.5c11.03-2.28,21.97-2.28,33,0Z"/><path d="M149.98,329.29v36.38c0,.21-2.63,2.81-3.01,2.99-1.35.61-23.52.81-25.84.37-1.09-.21-4.14-2.93-4.14-3.36v-36.38h33Z"/><path d="M149.9,68.21c-11.03,2.67-21.81,2.67-32.84,0,.64-9.08-1.13-19.94-.09-28.81.43-3.69,2.78-5.2,6.37-5.63,3.87-.46,18.79-.5,22.16.37,2.83.73,4.16,2.4,4.49,5.26,1.04,8.86-.74,19.73-.09,28.81Z"/><rect x="116.98" y="251.29" width="33" height="27.75"/><rect x="116.98" y="290.29" width="33" height="27.75"/></svg>